<svg width="342" height="190" viewBox="0 0 342 190" fill="none" xmlns="http://www.w3.org/2000/svg">
<path d="M0.616561 63.445C0.200734 64.7616 0.93096 66.166 2.24757 66.5819C3.56417 66.9977 4.96859 66.2675 5.38442 64.9508L0.616561 63.445ZM94.0181 3.13039L94.1385 0.63329L94.1385 0.63329L94.0181 3.13039ZM159.317 96.5458L161.768 97.0367L161.768 97.0367L159.317 96.5458ZM128.2 133.539L128.024 136.033L128.024 136.033L128.2 133.539ZM104.816 91.7535L102.32 91.599L102.32 91.599L104.816 91.7535ZM197.399 32.3888L198.021 29.9675L198.021 29.9675L197.399 32.3888ZM250.95 133.539L248.519 132.958L248.519 132.958L250.95 133.539ZM219.909 163.634L219.913 161.134L219.913 161.134L219.909 163.634ZM199.444 116.913L196.995 116.411L196.995 116.411L199.444 116.913ZM297.066 85.1641L296.143 87.4874L296.143 87.4874L297.066 85.1641ZM336.491 186.947C336.461 188.327 337.557 189.47 338.937 189.499C340.317 189.529 341.46 188.434 341.49 187.053L336.491 186.947ZM3.00049 64.1979C5.38442 64.9508 5.38412 64.9518 5.3839 64.9525C5.38393 64.9524 5.38379 64.9528 5.38385 64.9526C5.38397 64.9522 5.3844 64.9509 5.38514 64.9486C5.38663 64.944 5.38935 64.9355 5.39334 64.9232C5.4013 64.8987 5.4143 64.859 5.43244 64.8046C5.46872 64.6959 5.52557 64.5287 5.60387 64.3068C5.76049 63.8631 6.00286 63.2014 6.33816 62.3539C7.00895 60.6582 8.05044 58.2218 9.51965 55.3003C12.4609 49.4518 17.0999 41.6924 23.8839 34.0458C37.4084 18.8019 59.4707 3.96762 93.8977 5.62749L94.1385 0.63329C57.9109 -1.11339 34.4644 14.5861 20.1437 30.7276C13.0051 38.7737 8.13752 46.9199 5.05272 53.0539C3.50892 56.1236 2.40756 58.6976 1.68876 60.5146C1.32926 61.4233 1.06514 62.1435 0.888979 62.6425C0.80089 62.8921 0.734765 63.0865 0.689677 63.2215C0.667133 63.2891 0.649845 63.3418 0.637698 63.3792C0.631625 63.3979 0.626836 63.4128 0.623318 63.4238C0.621559 63.4293 0.620118 63.4338 0.618992 63.4373C0.61843 63.4391 0.617821 63.441 0.617541 63.4419C0.617012 63.4436 0.616561 63.445 3.00049 64.1979ZM93.8977 5.62749C114.684 6.62966 133.312 20.6438 145.139 39.8088L149.394 37.1829C137.001 17.1009 117.069 1.73888 94.1385 0.63329L93.8977 5.62749ZM145.139 39.8088C155.665 56.8644 160.556 77.6264 156.865 96.0549L161.768 97.0367C165.754 77.1324 160.447 55.0933 149.394 37.1829L145.139 39.8088ZM156.865 96.0549C155.157 104.587 151.91 113.78 147.056 120.617C142.22 127.43 136.055 131.587 128.376 131.046L128.024 136.033C138.076 136.743 145.719 131.14 151.133 123.511C156.531 115.907 159.977 105.977 161.768 97.0367L156.865 96.0549ZM128.376 131.046C120.542 130.493 115.063 125.422 111.575 117.915C108.067 110.366 106.768 100.677 107.311 91.908L102.32 91.599C101.74 100.966 103.095 111.532 107.041 120.022C111.006 128.556 117.781 135.31 128.024 136.033L128.376 131.046ZM107.311 91.908C108.66 70.1184 126.145 51.0105 148.315 40.7652L146.218 36.2264C123.099 46.9099 103.825 67.2998 102.32 91.599L107.311 91.908ZM148.315 40.7652C163.996 33.5187 181.624 30.9142 196.776 34.81L198.021 29.9675C181.505 25.7211 162.686 28.6162 146.218 36.2264L148.315 40.7652ZM196.776 34.81C217.957 40.256 234.911 59.1874 243.781 81.8447L248.437 80.0219C239.205 56.4404 221.27 35.9452 198.021 29.9675L196.776 34.81ZM243.781 81.8447C250.326 98.5639 252.335 117.004 248.519 132.958L253.381 134.121C257.478 116.995 255.281 97.505 248.437 80.0219L243.781 81.8447ZM248.519 132.958C246.517 141.324 243.315 148.397 238.68 153.342C234.114 158.212 228.045 161.149 219.913 161.134L219.904 166.134C229.42 166.151 236.814 162.644 242.328 156.761C247.772 150.952 251.267 142.961 253.381 134.121L248.519 132.958ZM219.913 161.134C211.633 161.119 206.203 155.427 203.217 146.668C200.226 137.895 199.992 126.686 201.893 117.415L196.995 116.411C194.951 126.379 195.154 138.513 198.485 148.281C201.82 158.064 208.595 166.113 219.904 166.134L219.913 161.134ZM201.893 117.415C205.713 98.7826 224.278 87.352 246.546 83.3947L245.672 78.4719C222.7 82.554 201.441 94.7238 196.995 116.411L201.893 117.415ZM246.546 83.3947C263.517 80.379 281.993 81.8649 296.143 87.4874L297.989 82.8408C282.854 76.827 263.42 75.3178 245.672 78.4719L246.546 83.3947ZM296.143 87.4874C306.391 91.5594 314.098 99.608 319.896 109.654C325.699 119.709 329.502 131.621 331.979 143.123C334.453 154.609 335.583 165.579 336.093 173.688C336.347 177.738 336.446 181.066 336.482 183.375C336.5 184.53 336.502 185.43 336.5 186.037C336.498 186.341 336.496 186.572 336.494 186.725C336.493 186.802 336.492 186.859 336.492 186.896C336.491 186.914 336.491 186.928 336.491 186.937C336.491 186.941 336.491 186.944 336.491 186.946C336.491 186.946 336.491 186.947 336.491 186.947C336.491 186.947 336.491 186.947 338.99 187C341.49 187.053 341.49 187.052 341.49 187.051C341.49 187.05 341.49 187.048 341.49 187.047C341.49 187.043 341.49 187.039 341.49 187.033C341.49 187.021 341.491 187.004 341.491 186.982C341.492 186.937 341.493 186.873 341.494 186.789C341.496 186.622 341.498 186.376 341.5 186.057C341.502 185.419 341.5 184.487 341.482 183.298C341.445 180.921 341.343 177.514 341.083 173.374C340.563 165.103 339.409 153.871 336.867 142.07C334.329 130.285 330.384 117.823 324.227 107.155C318.065 96.4788 309.602 87.4549 297.989 82.8408L296.143 87.4874Z" fill="#FFD44B"/>
</svg>
