<svg width="60" height="60" viewBox="0 0 60 60" fill="none" xmlns="http://www.w3.org/2000/svg">
<circle opacity="0.1" cx="30" cy="30" r="30" fill="#1A1AFF"/>
<path opacity="0.2" d="M39.75 15H39.75C41.1424 15 42.4777 15.5531 43.4623 16.5377C44.4469 17.5222 45 18.8576 45 20.25V20.25C45 21.6424 44.4469 22.9777 43.4623 23.9623C42.4777 24.9469 41.1424 25.5 39.75 25.5H34.5V20.25C34.5 18.8576 35.0531 17.5223 36.0377 16.5377C37.0223 15.5531 38.3576 15 39.75 15V15Z" fill="#1A1AFF"/>
<path opacity="0.2" d="M25.5 25.5H20.25C18.8576 25.5 17.5223 24.9469 16.5377 23.9623C15.5531 22.9777 15 21.6424 15 20.25V20.25C15 18.8576 15.5531 17.5223 16.5377 16.5377C17.5223 15.5531 18.8576 15 20.25 15H20.25C21.6424 15 22.9777 15.5531 23.9623 16.5377C24.9469 17.5223 25.5 18.8576 25.5 20.25V25.5Z" fill="#1A1AFF"/>
<path opacity="0.2" d="M34.5 34.5H39.75C41.1424 34.5 42.4777 35.0531 43.4623 36.0377C44.4469 37.0223 45 38.3576 45 39.75V39.75C45 41.1424 44.4469 42.4777 43.4623 43.4623C42.4777 44.4469 41.1424 45 39.75 45H39.75C38.3576 45 37.0223 44.4469 36.0377 43.4623C35.0531 42.4777 34.5 41.1424 34.5 39.75V34.5Z" fill="#1A1AFF"/>
<path opacity="0.2" d="M20.25 45H20.25C18.8576 45 17.5223 44.4469 16.5377 43.4623C15.5531 42.4778 15 41.1424 15 39.75V39.75C15 38.3576 15.5531 37.0223 16.5377 36.0377C17.5223 35.0531 18.8576 34.5 20.25 34.5H25.5V39.75C25.5 41.1424 24.9469 42.4777 23.9623 43.4623C22.9777 44.4469 21.6424 45 20.25 45V45Z" fill="#1A1AFF"/>
<path d="M20.25 45H20.25C18.8576 45 17.5223 44.4469 16.5377 43.4623C15.5531 42.4778 15 41.1424 15 39.75V39.75C15 38.3576 15.5531 37.0223 16.5377 36.0377C17.5223 35.0531 18.8576 34.5 20.25 34.5H25.5V39.75C25.5 41.1424 24.9469 42.4777 23.9623 43.4623C22.9777 44.4469 21.6424 45 20.25 45V45Z" stroke="#1A1AFF" stroke-width="3.22147" stroke-linecap="round" stroke-linejoin="round"/>
<path d="M39.75 15H39.75C41.1424 15 42.4777 15.5531 43.4623 16.5377C44.4469 17.5222 45 18.8576 45 20.25V20.25C45 21.6424 44.4469 22.9777 43.4623 23.9623C42.4777 24.9469 41.1424 25.5 39.75 25.5H34.5V20.25C34.5 18.8576 35.0531 17.5223 36.0377 16.5377C37.0223 15.5531 38.3576 15 39.75 15V15Z" stroke="#1A1AFF" stroke-width="3.22147" stroke-linecap="round" stroke-linejoin="round"/>
<path d="M25.5 25.5H20.25C18.8576 25.5 17.5223 24.9469 16.5377 23.9623C15.5531 22.9777 15 21.6424 15 20.25V20.25C15 18.8576 15.5531 17.5223 16.5377 16.5377C17.5223 15.5531 18.8576 15 20.25 15H20.25C21.6424 15 22.9777 15.5531 23.9623 16.5377C24.9469 17.5223 25.5 18.8576 25.5 20.25V25.5Z" stroke="#1A1AFF" stroke-width="3.22147" stroke-linecap="round" stroke-linejoin="round"/>
<path d="M34.5 34.5H39.75C41.1424 34.5 42.4777 35.0531 43.4623 36.0377C44.4469 37.0223 45 38.3576 45 39.75V39.75C45 41.1424 44.4469 42.4777 43.4623 43.4623C42.4777 44.4469 41.1424 45 39.75 45H39.75C38.3576 45 37.0223 44.4469 36.0377 43.4623C35.0531 42.4777 34.5 41.1424 34.5 39.75V34.5Z" stroke="#1A1AFF" stroke-width="3.22147" stroke-linecap="round" stroke-linejoin="round"/>
<path d="M34.5 25.5H25.5V34.5H34.5V25.5Z" stroke="#1A1AFF" stroke-width="3.22147" stroke-linecap="round" stroke-linejoin="round"/>
</svg>
