<svg width="45" height="40" viewBox="0 0 45 40" fill="none" xmlns="http://www.w3.org/2000/svg">
<path d="M32.2528 0C39.9111 0 44.4365 4.39694 44.4365 11.8619V11.9447H35.0262C30.6469 11.9524 27.0993 15.4114 27.0914 19.6813C27.0854 23.9607 30.637 27.4351 35.0262 27.4409H44.4444V28.1208C44.4444 35.5857 39.919 40 32.2607 40H12.1857C4.52543 40 0 35.5857 0 28.1208V11.8619C0 4.39694 4.52543 0 12.1857 0H32.2528ZM23.0736 8.6109H10.5323C9.6 8.61476 8.84346 9.3524 8.83949 10.2634C8.83555 11.1782 9.59407 11.9235 10.5323 11.9274H23.0894C24.0277 11.9235 24.7862 11.1782 24.7822 10.2614C24.7783 9.34662 24.0119 8.60706 23.0736 8.6109Z" fill="#FF784A"/>
<path opacity="0.4" d="M31.1942 20.6591C31.6589 22.7728 33.5122 24.26 35.628 24.2213H42.85C43.7303 24.2213 44.4444 23.4922 44.4444 22.591V16.9653C44.4425 16.0661 43.7303 15.3351 42.85 15.3331H35.4579C33.0512 15.3409 31.1073 17.3386 31.1111 19.8004C31.1111 20.0886 31.1394 20.3767 31.1942 20.6591Z" fill="#FF784A"/>
<path d="M35.5555 21.9997C36.7828 21.9997 37.7777 21.0048 37.7777 19.7775C37.7777 18.5502 36.7828 17.5553 35.5555 17.5553C34.3282 17.5553 33.3333 18.5502 33.3333 19.7775C33.3333 21.0048 34.3282 21.9997 35.5555 21.9997Z" fill="#FF784A"/>
</svg>
