<svg width="60" height="60" viewBox="0 0 60 60" fill="none" xmlns="http://www.w3.org/2000/svg">
<circle opacity="0.1" cx="30" cy="30" r="30" fill="#DC34AB"/>
<path d="M27.9819 32.019L17.1387 42.8622" stroke="#DC34AB" stroke-width="2.80312" stroke-linecap="round" stroke-linejoin="round"/>
<path opacity="0.2" d="M42.9227 18.6412L34.0837 42.2118C33.9965 42.4443 33.8402 42.6445 33.6357 42.7854C33.4313 42.9263 33.1886 43.0012 32.9403 43C32.692 42.9987 32.45 42.9214 32.247 42.7785C32.044 42.6355 31.8896 42.4338 31.8048 42.2004L28.2638 32.4627C28.2031 32.2959 28.1067 32.1444 27.9811 32.0189C27.8556 31.8934 27.7041 31.7969 27.5373 31.7362L17.7996 28.1952C17.5662 28.1104 17.3645 27.956 17.2215 27.753C17.0786 27.55 17.0013 27.308 17 27.0597C16.9988 26.8114 17.0737 26.5687 17.2146 26.3643C17.3555 26.1598 17.5557 26.0035 17.7882 25.9163L41.3588 17.0773C41.5772 16.9954 41.8145 16.9782 42.0425 17.0275C42.2704 17.0769 42.4793 17.1909 42.6442 17.3558C42.8091 17.5207 42.9231 17.7296 42.9725 17.9575C43.0218 18.1855 43.0046 18.4228 42.9227 18.6412Z" fill="#DC34AB"/>
<path d="M42.9227 18.6412L34.0837 42.2118C33.9965 42.4443 33.8402 42.6445 33.6357 42.7854C33.4313 42.9263 33.1886 43.0012 32.9403 43C32.692 42.9987 32.45 42.9214 32.247 42.7785C32.044 42.6355 31.8896 42.4338 31.8048 42.2004L28.2638 32.4627C28.2031 32.2959 28.1067 32.1444 27.9811 32.0189C27.8556 31.8934 27.7041 31.7969 27.5373 31.7362L17.7996 28.1952C17.5662 28.1104 17.3645 27.956 17.2215 27.753C17.0786 27.55 17.0013 27.308 17 27.0597C16.9988 26.8114 17.0737 26.5687 17.2146 26.3643C17.3555 26.1598 17.5557 26.0035 17.7882 25.9163L41.3588 17.0773C41.5772 16.9954 41.8145 16.9782 42.0425 17.0275C42.2704 17.0769 42.4793 17.1909 42.6442 17.3558C42.8091 17.5207 42.9231 17.7296 42.9725 17.9575C43.0218 18.1855 43.0046 18.4228 42.9227 18.6412Z" stroke="#DC34AB" stroke-width="2.80312" stroke-linecap="round" stroke-linejoin="round"/>
</svg>
