<svg width="60" height="60" viewBox="0 0 60 60" fill="none" xmlns="http://www.w3.org/2000/svg">
<circle opacity="0.1" cx="30" cy="30" r="30" fill="#32C072"/>
<path d="M24.1976 37.4861C28.1445 37.0709 32.124 37.0709 36.0709 37.4861M14.7599 43.8565C14.8062 44.0516 14.8914 44.2353 15.0106 44.3966C15.1297 44.5579 15.2802 44.6934 15.4531 44.795C15.6259 44.8966 15.8175 44.9622 16.0164 44.9878C16.2153 45.0134 16.4173 44.9986 16.6102 44.9441C25.4575 42.5013 34.8013 42.5004 43.6491 44.9415C43.842 44.9959 44.0439 45.0108 44.2427 44.9852C44.4414 44.9596 44.633 44.894 44.8058 44.7925C44.9786 44.6909 45.1291 44.5555 45.2482 44.3943C45.3673 44.2331 45.4526 44.0495 45.4989 43.8545L50.2276 23.7595C50.2909 23.4905 50.2778 23.2091 50.1899 22.9471C50.1019 22.6852 49.9426 22.4529 49.7297 22.2766C49.5169 22.1003 49.2591 21.9869 48.9853 21.9492C48.7115 21.9115 48.4327 21.951 48.1801 22.0633L38.7958 26.2341C38.457 26.3847 38.074 26.403 37.7223 26.2854C37.3706 26.1678 37.0757 25.9228 36.8956 25.5986L31.4316 15.7634C31.3031 15.532 31.115 15.3392 30.8869 15.205C30.6588 15.0708 30.3989 15 30.1342 15C29.8696 15 29.6097 15.0708 29.3816 15.205C29.1535 15.3392 28.9654 15.532 28.8368 15.7634L23.3728 25.5986C23.1928 25.9228 22.8978 26.1678 22.5462 26.2854C22.1945 26.403 21.8115 26.3847 21.4727 26.2341L12.0869 22.0627C11.8344 21.9504 11.5556 21.9109 11.2819 21.9486C11.0082 21.9862 10.7504 22.0996 10.5376 22.2758C10.3248 22.452 10.1654 22.6842 10.0773 22.9461C9.9893 23.208 9.97614 23.4893 10.0393 23.7583L14.7599 43.8565Z" stroke="#32C072" stroke-width="2.86938" stroke-linecap="round" stroke-linejoin="round"/>
<path opacity="0.2" d="M14.7599 43.8565C14.8062 44.0516 14.8914 44.2353 15.0106 44.3966C15.1297 44.5579 15.2802 44.6934 15.4531 44.795C15.6259 44.8966 15.8175 44.9622 16.0164 44.9878C16.2153 45.0134 16.4173 44.9986 16.6102 44.9441C25.4575 42.5013 34.8013 42.5004 43.6491 44.9415C43.842 44.9959 44.0439 45.0108 44.2426 44.9852C44.4414 44.9596 44.633 44.894 44.8058 44.7925C44.9786 44.6909 45.1291 44.5555 45.2482 44.3943C45.3673 44.2331 45.4526 44.0495 45.4989 43.8545L50.2276 23.7595C50.2909 23.4905 50.2778 23.2091 50.1899 22.9471C50.1019 22.6852 49.9426 22.4529 49.7297 22.2766C49.5169 22.1003 49.2591 21.9869 48.9853 21.9492C48.7115 21.9115 48.4327 21.951 48.1801 22.0633L38.7958 26.2341C38.457 26.3847 38.074 26.403 37.7223 26.2854C37.3706 26.1678 37.0757 25.9228 36.8956 25.5986L31.4316 15.7634C31.3031 15.532 31.115 15.3392 30.8869 15.205C30.6588 15.0708 30.3989 15 30.1342 15C29.8696 15 29.6097 15.0708 29.3816 15.205C29.1535 15.3392 28.9654 15.532 28.8368 15.7634L23.3728 25.5986C23.1928 25.9228 22.8978 26.1678 22.5462 26.2854C22.1945 26.403 21.8115 26.3847 21.4727 26.2341L12.0869 22.0627C11.8344 21.9504 11.5556 21.9109 11.2819 21.9486C11.0082 21.9862 10.7504 22.0996 10.5376 22.2758C10.3248 22.452 10.1654 22.6842 10.0773 22.9461C9.9893 23.208 9.97614 23.4893 10.0393 23.7583L14.7599 43.8565Z" fill="#32C072"/>
</svg>
