<svg width="40" height="40" viewBox="0 0 40 40" fill="none" xmlns="http://www.w3.org/2000/svg">
<path d="M26.6263 4C26.5317 4.48601 26.4846 4.98003 26.4856 5.47512C26.4856 9.91711 30.0918 13.518 34.5403 13.518C35.0301 13.5156 35.5187 13.4686 36 13.3776V29.3229C36 36.0312 32.043 40 25.3249 40H10.6927C3.95701 40 0 36.0312 0 29.3229V14.7122C0 8.0039 3.95701 4 10.6927 4H26.6263ZM26.868 15.9885L26.6333 16.0032C26.2422 16.0594 25.8907 16.2716 25.659 16.5912L20.8403 22.7902L15.3532 18.4702C15.0399 18.2262 14.6414 18.1184 14.2476 18.1713C13.8538 18.2242 13.498 18.4332 13.2604 18.7512L7.35125 26.3727C7.14354 26.6316 7.03172 26.9541 7.03469 27.2859L7.03988 27.5066C7.09716 28.0866 7.49497 28.5877 8.06475 28.7676C8.70576 28.97 9.40275 28.7146 9.76062 28.1463L14.7025 21.7541L20.1895 26.0566C20.5016 26.3082 20.9028 26.4223 21.3008 26.3726C21.6988 26.3229 22.0595 26.1137 22.3 25.7932L28.0156 18.4176V18.3824C28.5049 17.7249 28.3801 16.7978 27.7342 16.2927C27.4216 16.0514 27.0244 15.9469 26.6333 16.0032L26.868 15.9885Z" fill="#00DAF7"/>
<path opacity="0.4" d="M35 10C37.7614 10 40 7.76142 40 5C40 2.23858 37.7614 0 35 0C32.2386 0 30 2.23858 30 5C30 7.76142 32.2386 10 35 10Z" fill="#00DAF7"/>
</svg>
