<svg width="363" height="205" viewBox="0 0 363 205" fill="none" xmlns="http://www.w3.org/2000/svg">
<path d="M2.8896 174.091C1.90005 173.6 0.700006 174.004 0.209233 174.994C-0.281541 175.984 0.122799 177.184 1.11235 177.674L2.8896 174.091ZM118.03 201.314L117.629 199.355L117.629 199.355L118.03 201.314ZM197.173 39.3029L195.33 40.0804L195.33 40.0804L197.173 39.3029ZM128.577 5.21341L127.831 3.35761L127.831 3.35761L128.577 5.21341ZM95.7735 72.1757L93.8025 72.5151L93.8025 72.5151L95.7735 72.1757ZM258.463 157.386L257.852 155.482L257.852 155.482L258.463 157.386ZM351.082 19.8917L352.99 19.2921L352.061 16.3381L349.75 18.3992L351.082 19.8917ZM334.273 32.4046L335.29 34.1267L335.29 34.1267L334.273 32.4046ZM358.457 50.0272C358.788 51.0809 359.911 51.6667 360.964 51.3355C362.018 51.0043 362.604 49.8816 362.273 48.8278L358.457 50.0272ZM319.815 37.3883C318.811 37.848 318.369 39.0348 318.829 40.0392C319.289 41.0436 320.475 41.4852 321.48 41.0256L319.815 37.3883ZM2.00098 175.883C1.11235 177.674 1.11294 177.675 1.1138 177.675C1.11444 177.675 1.11557 177.676 1.11685 177.677C1.11942 177.678 1.12305 177.68 1.12775 177.682C1.13714 177.687 1.15078 177.693 1.16862 177.702C1.20429 177.72 1.25677 177.746 1.32569 177.779C1.46353 177.847 1.66715 177.946 1.93364 178.074C2.46662 178.33 3.25121 178.703 4.26427 179.174C6.29026 180.116 9.23086 181.448 12.901 183.016C20.2392 186.151 30.5051 190.233 42.2165 194.022C65.5386 201.567 94.9759 208.079 118.431 203.273L117.629 199.355C95.2617 203.937 66.6846 197.733 43.4477 190.216C31.8796 186.473 21.73 182.438 14.4724 179.337C10.8448 177.788 7.94249 176.473 5.95006 175.547C4.95392 175.084 4.1854 174.718 3.66759 174.469C3.40869 174.345 3.21248 174.249 3.08185 174.185C3.01654 174.153 2.96762 174.129 2.93546 174.114C2.91938 174.106 2.90748 174.1 2.89983 174.096C2.896 174.094 2.89323 174.093 2.89152 174.092C2.89067 174.091 2.89019 174.091 2.88976 174.091C2.88955 174.091 2.8896 174.091 2.00098 175.883ZM118.431 203.273C145.072 197.815 167.09 182.266 182.634 161.53L179.433 159.131C164.4 179.186 143.194 194.117 117.629 199.355L118.431 203.273ZM182.634 161.53C208.09 127.573 216.316 79.5246 199.016 38.5253L195.33 40.0804C212.028 79.6531 204.114 126.207 179.433 159.131L182.634 161.53ZM199.016 38.5254C190.605 18.5938 176.948 8.09182 163.283 3.44775C149.708 -1.1658 136.157 0.0123156 127.831 3.35761L129.323 7.06921C136.735 4.091 149.299 2.91992 161.996 7.23501C174.603 11.5196 187.374 21.2241 195.33 40.0804L199.016 38.5254ZM127.831 3.35761C114.457 8.73114 104.16 16.2155 98.1217 27.4377C92.0934 38.6417 90.4847 53.2489 93.8025 72.5151L97.7445 71.8363C94.5132 53.0721 96.1912 39.4677 101.644 29.333C107.087 19.2165 116.466 12.2349 129.323 7.06921L127.831 3.35761ZM93.8025 72.5151C102 120.119 137.438 151.574 180.552 162.272L181.515 158.39C139.685 148.011 105.631 117.631 97.7445 71.8363L93.8025 72.5151ZM180.552 162.272C205.371 168.43 232.767 167.727 259.074 159.291L257.852 155.482C232.246 163.693 205.607 164.367 181.515 158.39L180.552 162.272ZM259.074 159.291C275.661 153.971 289.798 142.505 301.644 128.476C313.496 114.441 323.146 97.7361 330.74 81.7489C338.338 65.7533 343.906 50.4178 347.573 39.0855C349.408 33.4173 350.769 28.7453 351.672 25.4864C352.124 23.8569 352.461 22.5803 352.686 21.7087C352.798 21.273 352.883 20.9384 352.939 20.7116C352.968 20.5982 352.989 20.5117 353.003 20.453C353.011 20.4236 353.016 20.4012 353.02 20.3858C353.022 20.3781 353.023 20.3722 353.024 20.368C353.025 20.3659 353.025 20.3641 353.025 20.3631C353.026 20.3617 353.026 20.3608 351.082 19.8917C349.137 19.4226 349.137 19.4226 349.137 19.4231C349.137 19.4238 349.137 19.4247 349.137 19.4262C349.136 19.4291 349.135 19.4338 349.133 19.4403C349.13 19.4532 349.125 19.4731 349.119 19.5C349.105 19.5537 349.085 19.6352 349.058 19.7434C349.004 19.96 348.922 20.284 348.813 20.709C348.593 21.5589 348.262 22.8126 347.817 24.4181C346.927 27.6292 345.582 32.2462 343.768 37.8538C340.136 49.0733 334.63 64.2374 327.127 80.0327C319.62 95.8364 310.142 112.213 298.588 125.896C287.028 139.584 273.48 150.47 257.852 155.482L259.074 159.291ZM351.082 19.8917C349.75 18.3992 349.75 18.3991 349.75 18.3991C349.75 18.3991 349.75 18.3991 349.75 18.3991C349.75 18.3992 349.75 18.3994 349.75 18.3997C349.749 18.4004 349.748 18.4015 349.746 18.4031C349.742 18.4062 349.737 18.4111 349.729 18.4179C349.714 18.4313 349.691 18.4519 349.66 18.4794C349.598 18.5342 349.504 18.6163 349.382 18.7231C349.137 18.9367 348.776 19.249 348.317 19.6396C347.398 20.4213 346.086 21.5151 344.52 22.759C341.376 25.2558 337.256 28.3196 333.256 30.6826L335.29 34.1267C339.52 31.6281 343.804 28.4354 347.008 25.8912C348.615 24.6145 349.962 23.4917 350.908 22.6868C351.382 22.2842 351.755 21.9607 352.012 21.7369C352.14 21.625 352.239 21.538 352.307 21.4783C352.34 21.4485 352.366 21.4256 352.384 21.4098C352.393 21.4019 352.4 21.3958 352.405 21.3915C352.407 21.3894 352.409 21.3877 352.41 21.3865C352.411 21.3859 352.412 21.3854 352.412 21.3851C352.412 21.3849 352.412 21.3847 352.413 21.3846C352.413 21.3844 352.413 21.3843 351.082 19.8917ZM349.174 20.4914L358.457 50.0272L362.273 48.8278L352.99 19.2921L349.174 20.4914ZM320.648 39.2069C321.48 41.0256 321.48 41.0255 321.48 41.0255C321.48 41.0254 321.48 41.0254 321.48 41.0253C321.481 41.0251 321.481 41.0249 321.482 41.0246C321.483 41.024 321.485 41.0232 321.487 41.0221C321.492 41.0199 321.499 41.0167 321.508 41.0125C321.527 41.0041 321.554 40.9917 321.589 40.9754C321.66 40.943 321.763 40.8952 321.897 40.8336C322.163 40.7105 322.548 40.5321 323.024 40.3102C323.973 39.8666 325.285 39.2487 326.731 38.5512C329.6 37.1672 333.077 35.4335 335.29 34.1267L333.256 30.6826C331.206 31.8931 327.871 33.5605 324.993 34.9484C323.566 35.6368 322.27 36.2474 321.331 36.686C320.862 36.9052 320.482 37.0812 320.22 37.2022C320.089 37.2627 319.987 37.3095 319.919 37.341C319.884 37.3567 319.858 37.3687 319.841 37.3766C319.832 37.3806 319.826 37.3836 319.821 37.3856C319.819 37.3865 319.818 37.3873 319.817 37.3877C319.816 37.388 319.816 37.3881 319.816 37.3882C319.815 37.3883 319.815 37.3883 319.815 37.3883C319.815 37.3883 319.815 37.3883 320.648 39.2069Z" fill="#FFD44B"/>
</svg>
