<svg width="333" height="190" viewBox="0 0 333 190" fill="none" xmlns="http://www.w3.org/2000/svg">
<path d="M3 64.1979C3 64.1979 23.363 -0.276188 94.0176 3.13037C135.35 5.12318 167.463 55.8665 159.316 96.5458C155.817 114.018 145.929 134.791 128.2 133.539C110.123 132.263 103.692 109.889 104.815 91.7535C107.255 52.3505 159.259 22.5826 197.398 32.3888C236.045 42.3255 260.255 94.6381 250.95 133.539C246.834 150.747 237.556 163.666 219.908 163.634C200.319 163.598 195.498 136.153 199.443 116.913C206.749 81.2816 263.343 71.7647 297.066 85.1641C340.786 102.536 338.99 187 338.99 187" stroke="white" stroke-width="5" stroke-linecap="round"/>
</svg>
