<svg width="41" height="40" viewBox="0 0 41 40" fill="none" xmlns="http://www.w3.org/2000/svg">
<path opacity="0.4" d="M28.154 0H34.9259C37.7304 0 40.0029 2.2917 40.0029 5.11993V11.949C40.0029 14.7773 37.7304 17.069 34.9259 17.069H28.154C25.3494 17.069 23.0769 14.7773 23.0769 11.949V5.11993C23.0769 2.2917 25.3494 0 28.154 0Z" fill="#1A1AFF"/>
<path d="M11.849 22.931C14.6535 22.931 16.926 25.2227 16.926 28.051V34.8801C16.926 37.7064 14.6535 40 11.849 40H5.07705C2.27251 40 0 37.7064 0 34.8801V28.051C0 25.2227 2.27251 22.931 5.07705 22.931H11.849ZM34.923 22.931C37.7275 22.931 40 25.2227 40 28.051V34.8801C40 37.7064 37.7275 40 34.923 40H28.151C25.3465 40 23.074 37.7064 23.074 34.8801V28.051C23.074 25.2227 25.3465 22.931 28.151 22.931H34.923ZM11.849 0C14.6535 0 16.926 2.2917 16.926 5.11993V11.949C16.926 14.7773 14.6535 17.069 11.849 17.069H5.07705C2.27251 17.069 0 14.7773 0 11.949V5.11993C0 2.2917 2.27251 0 5.07705 0H11.849Z" fill="#1A1AFF"/>
</svg>
