<svg width="43" height="40" viewBox="0 0 43 40" fill="none" xmlns="http://www.w3.org/2000/svg">
<path opacity="0.4" d="M20.5808 39.6578C15.7744 36.689 11.3064 33.1885 7.25849 29.2202C4.40084 26.3869 2.21843 22.9273 0.878018 19.1058C-1.517 11.6531 1.27095 3.13575 9.05475 0.607151C13.1632 -0.683093 17.6315 0.108957 21.0672 2.73649C24.5043 0.111895 28.9711 -0.679896 33.0797 0.607151C40.8635 3.13575 43.6702 11.6531 41.2752 19.1058C39.9457 22.9237 37.7762 26.383 34.9321 29.2202C30.8806 33.1842 26.4131 36.6843 21.6099 39.6578L21.086 40L20.5808 39.6578Z" fill="#F63D95"/>
<path d="M21.0756 39.9995L20.581 39.6573C15.7687 36.6888 11.2945 33.1883 7.24004 29.2197C4.36885 26.3903 2.17344 22.9304 0.822146 19.1054C-1.55416 11.6527 1.23379 3.13528 9.01759 0.606683C13.126 -0.68356 17.6532 0.109096 21.0756 2.75863V39.9995ZM34.1694 14.7347C33.7465 14.7075 33.3526 14.4962 33.0801 14.1502C32.8076 13.8042 32.6804 13.3541 32.7282 12.9051C32.774 11.4265 31.9327 10.0806 30.6352 9.55694C29.8125 9.33236 29.3143 8.44136 29.5201 7.56266C29.7154 6.6981 30.5249 6.16052 31.3386 6.35512C31.4414 6.37216 31.5402 6.40938 31.6303 6.4649C34.2317 7.46602 35.9161 10.1604 35.782 13.1064C35.7778 13.5529 35.6037 13.9784 35.2996 14.2854C34.9956 14.5925 34.5877 14.7546 34.1694 14.7347Z" fill="#F63D95"/>
</svg>
