<svg width="60" height="60" viewBox="0 0 60 60" fill="none" xmlns="http://www.w3.org/2000/svg">
<circle opacity="0.1" cx="30" cy="30" r="30" fill="#FF5771"/>
<path opacity="0.1" d="M29.5474 45.3559L29.5712 45.3606L29.5951 45.3559C35.0523 44.2948 39.1222 41.3966 41.7779 36.7001C44.4305 32.009 45.6674 25.5326 45.4847 17.318L45.4852 17.3179L45.484 17.3068C45.4767 17.2415 45.4521 17.1793 45.4127 17.1266C45.3734 17.0739 45.3208 17.0327 45.2602 17.0071C45.1996 16.9815 45.1334 16.9726 45.0682 16.9811C45.0048 16.9894 44.9446 17.014 44.8936 17.0525C43.4675 17.9926 41.7888 18.476 40.081 18.4383V18.4382H40.0783C36.841 18.4382 34.2262 16.9421 33.3716 14.6553C33.2824 14.3683 33.1071 14.1155 32.8695 13.9314C32.6308 13.7465 32.3409 13.6398 32.0393 13.6259L32.0393 13.6257H32.0335H27.1108V13.6256L27.1058 13.6258C26.8026 13.638 26.5106 13.7438 26.2701 13.9288C26.0304 14.1132 25.8536 14.367 25.7638 14.6556C24.9202 16.9418 22.2968 18.4382 19.0573 18.4382L19.0545 18.4383C17.3474 18.4755 15.6695 17.9922 14.2438 17.0526C14.1929 17.014 14.1327 16.9892 14.0693 16.9808C14.004 16.9721 13.9376 16.9811 13.8769 17.0067C13.8162 17.0323 13.7635 17.0737 13.7242 17.1265C13.6849 17.1793 13.6604 17.2417 13.6532 17.3072L13.6528 17.3072L13.6525 17.318C13.4716 25.5327 14.7117 32.0091 17.3661 36.7001C20.0236 41.3966 24.0939 44.2948 29.5474 45.3559ZM33.2617 28.4187C33.2514 28.5452 33.1965 28.6644 33.1062 28.7547C33.0068 28.8542 32.8723 28.9106 32.7317 28.912L26.4213 28.912L26.4207 28.912C26.2784 28.9126 26.1417 28.857 26.0403 28.7572C25.939 28.6576 25.8813 28.522 25.8795 28.38L25.8795 23.3237C25.8795 23.3236 25.8795 23.3235 25.8795 23.3234C25.8826 22.4417 26.2348 21.597 26.8591 20.9743C27.4834 20.3516 28.329 20.0015 29.2109 20.0007H29.9303C30.8122 20.0015 31.6578 20.3516 32.2821 20.9743C32.9065 21.5971 33.2587 22.4418 33.2617 23.3237V28.3807V28.4187Z" fill="#FF5771" stroke="#FF5771" stroke-width="0.25"/>
<mask id="path-3-outside-1_2_3630" maskUnits="userSpaceOnUse" x="11" y="11" width="37" height="37" fill="black">
<rect fill="white" x="11" y="11" width="37" height="37"/>
<path fill-rule="evenodd" clip-rule="evenodd" d="M45.1174 15.3513C44.699 15.3538 44.2916 15.4851 43.9506 15.7275C42.7979 16.4676 41.4499 16.8455 40.0805 16.8125C38.159 16.8125 35.649 16.1037 34.9035 14.0825C34.6963 13.4831 34.31 12.9619 33.7967 12.5894C33.2834 12.2169 32.6681 12.0111 32.034 12H27.1112C26.4748 12.0109 25.8571 12.2174 25.3422 12.5915C24.8272 12.9657 24.4399 13.4893 24.2329 14.0912C23.487 16.1037 20.9775 16.8125 19.0555 16.8125C17.6864 16.8443 16.3389 16.4665 15.1858 15.7275C14.8447 15.4851 14.4371 15.3537 14.0186 15.3513C13.4977 15.3454 12.9955 15.5451 12.621 15.9071C12.2464 16.2691 12.0297 16.7642 12.0179 17.285C11.632 34.7588 17.4866 44.7513 29.4103 46.9825C29.4628 46.9928 29.5161 46.9986 29.5695 47C29.6254 46.998 29.6811 46.9922 29.7362 46.9825C41.6528 44.7513 47.5057 34.7588 47.1194 17.285C47.1076 16.764 46.8907 16.2687 46.5159 15.9066C46.141 15.5446 45.6385 15.345 45.1174 15.3513ZM29.5695 45.2325C18.7322 43.1238 13.4144 33.7263 13.7758 17.32C13.7805 17.2767 13.7967 17.2354 13.8227 17.2004C13.8487 17.1655 13.8836 17.1381 13.9238 17.1211C13.9639 17.1042 14.0079 17.0983 14.0511 17.104C14.0943 17.1097 14.1352 17.1269 14.1695 17.1537C15.6172 18.109 17.3215 18.6004 19.0555 18.5625C22.3285 18.5625 25.0138 17.0488 25.8805 14.695C25.9624 14.4298 26.1245 14.1964 26.3445 14.0272C26.5646 13.8579 26.8317 13.7611 27.109 13.75H32.0318C32.3077 13.7627 32.5729 13.8603 32.7912 14.0295C33.0095 14.1986 33.1703 14.4311 33.2515 14.695C34.1291 17.0488 36.8053 18.5625 40.0765 18.5625C41.8111 18.6009 43.5162 18.1094 44.9643 17.1537C44.9986 17.127 45.0395 17.11 45.0827 17.1043C45.1259 17.0987 45.1697 17.1046 45.2098 17.1215C45.2499 17.1385 45.2848 17.1658 45.3109 17.2007C45.3369 17.2356 45.3532 17.2767 45.358 17.32C45.7229 33.7263 40.4143 43.1238 29.5695 45.2325ZM29.9278 18.125H29.2082C27.8278 18.1234 26.5033 18.67 25.5259 19.6446C24.5485 20.6193 23.9981 21.9422 23.9958 23.3225V28.38C23.9983 29.0201 24.2548 29.6331 24.7089 30.0842C25.163 30.5354 25.7776 30.7879 26.4178 30.7863H30.5246V34.7588C30.5223 34.9269 30.5713 35.0917 30.665 35.2313L31.3143 36.2375L30.665 37.235C30.5707 37.3761 30.5203 37.5421 30.5203 37.7119C30.5203 37.8817 30.5707 38.0476 30.665 38.1888L31.3143 39.195L30.7018 40.14C30.5963 40.3601 30.4308 40.5458 30.2243 40.6758C30.0178 40.8059 29.7788 40.8748 29.5347 40.8748C29.2907 40.8748 29.0517 40.8059 28.8452 40.6758C28.6387 40.5458 28.4732 40.3601 28.3677 40.14L27.7447 39.195L28.401 38.1888C28.4912 38.0461 28.5391 37.8807 28.5391 37.7119C28.5391 37.543 28.4912 37.3777 28.401 37.235L27.7447 36.2375L28.401 35.2313C28.4908 35.0899 28.5395 34.9263 28.5414 34.7588V33.7087C28.5363 33.4794 28.4416 33.2612 28.2776 33.1009C28.1136 32.9405 27.8934 32.8507 27.664 32.8507C27.4346 32.8507 27.2144 32.9405 27.0504 33.1009C26.8864 33.2612 26.7917 33.4794 26.7866 33.7087V34.4963L25.9615 35.7563C25.8671 35.8974 25.8167 36.0633 25.8167 36.2331C25.8167 36.4029 25.8671 36.5689 25.9615 36.71L26.6107 37.7162L25.9615 38.7137C25.8671 38.8549 25.8167 39.0208 25.8167 39.1906C25.8167 39.3604 25.8671 39.5264 25.9615 39.6675L26.9266 41.1462C26.9473 41.1803 26.9709 41.2125 26.997 41.2425C27.7867 42.1612 28.6468 42.625 29.5345 42.625C30.4222 42.625 31.2718 42.1612 32.0615 41.2425C32.0877 41.2126 32.1111 41.1804 32.1315 41.1462L33.0971 39.6675C33.1915 39.5264 33.2418 39.3604 33.2418 39.1906C33.2418 39.0208 33.1915 38.8549 33.0971 38.7137L32.4478 37.7162L33.0971 36.71C33.1915 36.5689 33.2418 36.4029 33.2418 36.2331C33.2418 36.0633 33.1915 35.8974 33.0971 35.7563L32.2807 34.4963V30.7863H32.7283C33.367 30.786 33.9797 30.5327 34.432 30.0816C34.8843 29.6306 35.1394 29.0187 35.1415 28.38V23.3225C35.1392 21.9419 34.5886 20.6188 33.6109 19.6442C32.6332 18.6695 31.3084 18.123 29.9278 18.125ZM33.3841 28.38C33.3826 28.5536 33.313 28.7196 33.1902 28.8424C33.0675 28.9651 32.9014 29.0348 32.7278 29.0363H26.4195C26.2443 29.0371 26.0758 28.9685 25.9509 28.8456C25.8259 28.7226 25.7547 28.5553 25.7528 28.38V23.3225C25.7559 22.4076 26.1213 21.5312 26.7691 20.8851C27.4168 20.239 28.2941 19.8758 29.209 19.875H29.9287C30.8436 19.8758 31.7209 20.239 32.3687 20.8851C33.0164 21.5312 33.3818 22.4076 33.385 23.3225V28.38H33.3841ZM29.5695 21.4426C28.9887 21.4423 28.4315 21.6725 28.0201 22.0826C27.6088 22.4927 27.377 23.0492 27.3755 23.6301C27.3755 23.8628 27.4679 24.086 27.6325 24.2506C27.7971 24.4152 28.0203 24.5077 28.2531 24.5077C28.4858 24.5077 28.7091 24.4152 28.8737 24.2506C29.0382 24.086 29.1307 23.8628 29.1307 23.6301C29.1307 23.5137 29.1769 23.4021 29.2592 23.3198C29.3415 23.2375 29.4531 23.1913 29.5695 23.1913C29.6859 23.1913 29.7975 23.2375 29.8798 23.3198C29.9621 23.4021 30.0083 23.5137 30.0083 23.6301C30.0135 23.8594 30.1081 24.0776 30.2721 24.2379C30.4361 24.3983 30.6564 24.4881 30.8858 24.4881C31.1151 24.4881 31.3354 24.3983 31.4994 24.2379C31.6633 24.0776 31.758 23.8594 31.7632 23.6301C31.7617 23.0493 31.5298 22.4929 31.1186 22.0828C30.7074 21.6727 30.1503 21.4424 29.5695 21.4426Z"/>
</mask>
<path fill-rule="evenodd" clip-rule="evenodd" d="M45.1174 15.3513C44.699 15.3538 44.2916 15.4851 43.9506 15.7275C42.7979 16.4676 41.4499 16.8455 40.0805 16.8125C38.159 16.8125 35.649 16.1037 34.9035 14.0825C34.6963 13.4831 34.31 12.9619 33.7967 12.5894C33.2834 12.2169 32.6681 12.0111 32.034 12H27.1112C26.4748 12.0109 25.8571 12.2174 25.3422 12.5915C24.8272 12.9657 24.4399 13.4893 24.2329 14.0912C23.487 16.1037 20.9775 16.8125 19.0555 16.8125C17.6864 16.8443 16.3389 16.4665 15.1858 15.7275C14.8447 15.4851 14.4371 15.3537 14.0186 15.3513C13.4977 15.3454 12.9955 15.5451 12.621 15.9071C12.2464 16.2691 12.0297 16.7642 12.0179 17.285C11.632 34.7588 17.4866 44.7513 29.4103 46.9825C29.4628 46.9928 29.5161 46.9986 29.5695 47C29.6254 46.998 29.6811 46.9922 29.7362 46.9825C41.6528 44.7513 47.5057 34.7588 47.1194 17.285C47.1076 16.764 46.8907 16.2687 46.5159 15.9066C46.141 15.5446 45.6385 15.345 45.1174 15.3513ZM29.5695 45.2325C18.7322 43.1238 13.4144 33.7263 13.7758 17.32C13.7805 17.2767 13.7967 17.2354 13.8227 17.2004C13.8487 17.1655 13.8836 17.1381 13.9238 17.1211C13.9639 17.1042 14.0079 17.0983 14.0511 17.104C14.0943 17.1097 14.1352 17.1269 14.1695 17.1537C15.6172 18.109 17.3215 18.6004 19.0555 18.5625C22.3285 18.5625 25.0138 17.0488 25.8805 14.695C25.9624 14.4298 26.1245 14.1964 26.3445 14.0272C26.5646 13.8579 26.8317 13.7611 27.109 13.75H32.0318C32.3077 13.7627 32.5729 13.8603 32.7912 14.0295C33.0095 14.1986 33.1703 14.4311 33.2515 14.695C34.1291 17.0488 36.8053 18.5625 40.0765 18.5625C41.8111 18.6009 43.5162 18.1094 44.9643 17.1537C44.9986 17.127 45.0395 17.11 45.0827 17.1043C45.1259 17.0987 45.1697 17.1046 45.2098 17.1215C45.2499 17.1385 45.2848 17.1658 45.3109 17.2007C45.3369 17.2356 45.3532 17.2767 45.358 17.32C45.7229 33.7263 40.4143 43.1238 29.5695 45.2325ZM29.9278 18.125H29.2082C27.8278 18.1234 26.5033 18.67 25.5259 19.6446C24.5485 20.6193 23.9981 21.9422 23.9958 23.3225V28.38C23.9983 29.0201 24.2548 29.6331 24.7089 30.0842C25.163 30.5354 25.7776 30.7879 26.4178 30.7863H30.5246V34.7588C30.5223 34.9269 30.5713 35.0917 30.665 35.2313L31.3143 36.2375L30.665 37.235C30.5707 37.3761 30.5203 37.5421 30.5203 37.7119C30.5203 37.8817 30.5707 38.0476 30.665 38.1888L31.3143 39.195L30.7018 40.14C30.5963 40.3601 30.4308 40.5458 30.2243 40.6758C30.0178 40.8059 29.7788 40.8748 29.5347 40.8748C29.2907 40.8748 29.0517 40.8059 28.8452 40.6758C28.6387 40.5458 28.4732 40.3601 28.3677 40.14L27.7447 39.195L28.401 38.1888C28.4912 38.0461 28.5391 37.8807 28.5391 37.7119C28.5391 37.543 28.4912 37.3777 28.401 37.235L27.7447 36.2375L28.401 35.2313C28.4908 35.0899 28.5395 34.9263 28.5414 34.7588V33.7087C28.5363 33.4794 28.4416 33.2612 28.2776 33.1009C28.1136 32.9405 27.8934 32.8507 27.664 32.8507C27.4346 32.8507 27.2144 32.9405 27.0504 33.1009C26.8864 33.2612 26.7917 33.4794 26.7866 33.7087V34.4963L25.9615 35.7563C25.8671 35.8974 25.8167 36.0633 25.8167 36.2331C25.8167 36.4029 25.8671 36.5689 25.9615 36.71L26.6107 37.7162L25.9615 38.7137C25.8671 38.8549 25.8167 39.0208 25.8167 39.1906C25.8167 39.3604 25.8671 39.5264 25.9615 39.6675L26.9266 41.1462C26.9473 41.1803 26.9709 41.2125 26.997 41.2425C27.7867 42.1612 28.6468 42.625 29.5345 42.625C30.4222 42.625 31.2718 42.1612 32.0615 41.2425C32.0877 41.2126 32.1111 41.1804 32.1315 41.1462L33.0971 39.6675C33.1915 39.5264 33.2418 39.3604 33.2418 39.1906C33.2418 39.0208 33.1915 38.8549 33.0971 38.7137L32.4478 37.7162L33.0971 36.71C33.1915 36.5689 33.2418 36.4029 33.2418 36.2331C33.2418 36.0633 33.1915 35.8974 33.0971 35.7563L32.2807 34.4963V30.7863H32.7283C33.367 30.786 33.9797 30.5327 34.432 30.0816C34.8843 29.6306 35.1394 29.0187 35.1415 28.38V23.3225C35.1392 21.9419 34.5886 20.6188 33.6109 19.6442C32.6332 18.6695 31.3084 18.123 29.9278 18.125ZM33.3841 28.38C33.3826 28.5536 33.313 28.7196 33.1902 28.8424C33.0675 28.9651 32.9014 29.0348 32.7278 29.0363H26.4195C26.2443 29.0371 26.0758 28.9685 25.9509 28.8456C25.8259 28.7226 25.7547 28.5553 25.7528 28.38V23.3225C25.7559 22.4076 26.1213 21.5312 26.7691 20.8851C27.4168 20.239 28.2941 19.8758 29.209 19.875H29.9287C30.8436 19.8758 31.7209 20.239 32.3687 20.8851C33.0164 21.5312 33.3818 22.4076 33.385 23.3225V28.38H33.3841ZM29.5695 21.4426C28.9887 21.4423 28.4315 21.6725 28.0201 22.0826C27.6088 22.4927 27.377 23.0492 27.3755 23.6301C27.3755 23.8628 27.4679 24.086 27.6325 24.2506C27.7971 24.4152 28.0203 24.5077 28.2531 24.5077C28.4858 24.5077 28.7091 24.4152 28.8737 24.2506C29.0382 24.086 29.1307 23.8628 29.1307 23.6301C29.1307 23.5137 29.1769 23.4021 29.2592 23.3198C29.3415 23.2375 29.4531 23.1913 29.5695 23.1913C29.6859 23.1913 29.7975 23.2375 29.8798 23.3198C29.9621 23.4021 30.0083 23.5137 30.0083 23.6301C30.0135 23.8594 30.1081 24.0776 30.2721 24.2379C30.4361 24.3983 30.6564 24.4881 30.8858 24.4881C31.1151 24.4881 31.3354 24.3983 31.4994 24.2379C31.6633 24.0776 31.758 23.8594 31.7632 23.6301C31.7617 23.0493 31.5298 22.4929 31.1186 22.0828C30.7074 21.6727 30.1503 21.4424 29.5695 21.4426Z" fill="#FF5771"/>
<path fill-rule="evenodd" clip-rule="evenodd" d="M45.1174 15.3513C44.699 15.3538 44.2916 15.4851 43.9506 15.7275C42.7979 16.4676 41.4499 16.8455 40.0805 16.8125C38.159 16.8125 35.649 16.1037 34.9035 14.0825C34.6963 13.4831 34.31 12.9619 33.7967 12.5894C33.2834 12.2169 32.6681 12.0111 32.034 12H27.1112C26.4748 12.0109 25.8571 12.2174 25.3422 12.5915C24.8272 12.9657 24.4399 13.4893 24.2329 14.0912C23.487 16.1037 20.9775 16.8125 19.0555 16.8125C17.6864 16.8443 16.3389 16.4665 15.1858 15.7275C14.8447 15.4851 14.4371 15.3537 14.0186 15.3513C13.4977 15.3454 12.9955 15.5451 12.621 15.9071C12.2464 16.2691 12.0297 16.7642 12.0179 17.285C11.632 34.7588 17.4866 44.7513 29.4103 46.9825C29.4628 46.9928 29.5161 46.9986 29.5695 47C29.6254 46.998 29.6811 46.9922 29.7362 46.9825C41.6528 44.7513 47.5057 34.7588 47.1194 17.285C47.1076 16.764 46.8907 16.2687 46.5159 15.9066C46.141 15.5446 45.6385 15.345 45.1174 15.3513ZM29.5695 45.2325C18.7322 43.1238 13.4144 33.7263 13.7758 17.32C13.7805 17.2767 13.7967 17.2354 13.8227 17.2004C13.8487 17.1655 13.8836 17.1381 13.9238 17.1211C13.9639 17.1042 14.0079 17.0983 14.0511 17.104C14.0943 17.1097 14.1352 17.1269 14.1695 17.1537C15.6172 18.109 17.3215 18.6004 19.0555 18.5625C22.3285 18.5625 25.0138 17.0488 25.8805 14.695C25.9624 14.4298 26.1245 14.1964 26.3445 14.0272C26.5646 13.8579 26.8317 13.7611 27.109 13.75H32.0318C32.3077 13.7627 32.5729 13.8603 32.7912 14.0295C33.0095 14.1986 33.1703 14.4311 33.2515 14.695C34.1291 17.0488 36.8053 18.5625 40.0765 18.5625C41.8111 18.6009 43.5162 18.1094 44.9643 17.1537C44.9986 17.127 45.0395 17.11 45.0827 17.1043C45.1259 17.0987 45.1697 17.1046 45.2098 17.1215C45.2499 17.1385 45.2848 17.1658 45.3109 17.2007C45.3369 17.2356 45.3532 17.2767 45.358 17.32C45.7229 33.7263 40.4143 43.1238 29.5695 45.2325ZM29.9278 18.125H29.2082C27.8278 18.1234 26.5033 18.67 25.5259 19.6446C24.5485 20.6193 23.9981 21.9422 23.9958 23.3225V28.38C23.9983 29.0201 24.2548 29.6331 24.7089 30.0842C25.163 30.5354 25.7776 30.7879 26.4178 30.7863H30.5246V34.7588C30.5223 34.9269 30.5713 35.0917 30.665 35.2313L31.3143 36.2375L30.665 37.235C30.5707 37.3761 30.5203 37.5421 30.5203 37.7119C30.5203 37.8817 30.5707 38.0476 30.665 38.1888L31.3143 39.195L30.7018 40.14C30.5963 40.3601 30.4308 40.5458 30.2243 40.6758C30.0178 40.8059 29.7788 40.8748 29.5347 40.8748C29.2907 40.8748 29.0517 40.8059 28.8452 40.6758C28.6387 40.5458 28.4732 40.3601 28.3677 40.14L27.7447 39.195L28.401 38.1888C28.4912 38.0461 28.5391 37.8807 28.5391 37.7119C28.5391 37.543 28.4912 37.3777 28.401 37.235L27.7447 36.2375L28.401 35.2313C28.4908 35.0899 28.5395 34.9263 28.5414 34.7588V33.7087C28.5363 33.4794 28.4416 33.2612 28.2776 33.1009C28.1136 32.9405 27.8934 32.8507 27.664 32.8507C27.4346 32.8507 27.2144 32.9405 27.0504 33.1009C26.8864 33.2612 26.7917 33.4794 26.7866 33.7087V34.4963L25.9615 35.7563C25.8671 35.8974 25.8167 36.0633 25.8167 36.2331C25.8167 36.4029 25.8671 36.5689 25.9615 36.71L26.6107 37.7162L25.9615 38.7137C25.8671 38.8549 25.8167 39.0208 25.8167 39.1906C25.8167 39.3604 25.8671 39.5264 25.9615 39.6675L26.9266 41.1462C26.9473 41.1803 26.9709 41.2125 26.997 41.2425C27.7867 42.1612 28.6468 42.625 29.5345 42.625C30.4222 42.625 31.2718 42.1612 32.0615 41.2425C32.0877 41.2126 32.1111 41.1804 32.1315 41.1462L33.0971 39.6675C33.1915 39.5264 33.2418 39.3604 33.2418 39.1906C33.2418 39.0208 33.1915 38.8549 33.0971 38.7137L32.4478 37.7162L33.0971 36.71C33.1915 36.5689 33.2418 36.4029 33.2418 36.2331C33.2418 36.0633 33.1915 35.8974 33.0971 35.7563L32.2807 34.4963V30.7863H32.7283C33.367 30.786 33.9797 30.5327 34.432 30.0816C34.8843 29.6306 35.1394 29.0187 35.1415 28.38V23.3225C35.1392 21.9419 34.5886 20.6188 33.6109 19.6442C32.6332 18.6695 31.3084 18.123 29.9278 18.125ZM33.3841 28.38C33.3826 28.5536 33.313 28.7196 33.1902 28.8424C33.0675 28.9651 32.9014 29.0348 32.7278 29.0363H26.4195C26.2443 29.0371 26.0758 28.9685 25.9509 28.8456C25.8259 28.7226 25.7547 28.5553 25.7528 28.38V23.3225C25.7559 22.4076 26.1213 21.5312 26.7691 20.8851C27.4168 20.239 28.2941 19.8758 29.209 19.875H29.9287C30.8436 19.8758 31.7209 20.239 32.3687 20.8851C33.0164 21.5312 33.3818 22.4076 33.385 23.3225V28.38H33.3841ZM29.5695 21.4426C28.9887 21.4423 28.4315 21.6725 28.0201 22.0826C27.6088 22.4927 27.377 23.0492 27.3755 23.6301C27.3755 23.8628 27.4679 24.086 27.6325 24.2506C27.7971 24.4152 28.0203 24.5077 28.2531 24.5077C28.4858 24.5077 28.7091 24.4152 28.8737 24.2506C29.0382 24.086 29.1307 23.8628 29.1307 23.6301C29.1307 23.5137 29.1769 23.4021 29.2592 23.3198C29.3415 23.2375 29.4531 23.1913 29.5695 23.1913C29.6859 23.1913 29.7975 23.2375 29.8798 23.3198C29.9621 23.4021 30.0083 23.5137 30.0083 23.6301C30.0135 23.8594 30.1081 24.0776 30.2721 24.2379C30.4361 24.3983 30.6564 24.4881 30.8858 24.4881C31.1151 24.4881 31.3354 24.3983 31.4994 24.2379C31.6633 24.0776 31.758 23.8594 31.7632 23.6301C31.7617 23.0493 31.5298 22.4929 31.1186 22.0828C30.7074 21.6727 30.1503 21.4424 29.5695 21.4426Z" stroke="#FF5771" stroke-width="0.5" mask="url(#path-3-outside-1_2_3630)"/>
</svg>
