<svg width="130" height="122" viewBox="0 0 130 122" fill="none" xmlns="http://www.w3.org/2000/svg">
<path fill-rule="evenodd" clip-rule="evenodd" d="M125.917 1.84595C116.986 62.9712 62.1408 92.6616 4.88492 99.4125C3.90174 99.5303 3.19483 100.423 3.31263 101.406C3.43043 102.389 4.32296 103.096 5.30615 102.978C64.166 96.0416 120.289 65.2003 129.469 2.36241C129.614 1.38376 128.934 0.473068 127.951 0.328081C126.972 0.183095 126.062 0.862762 125.917 1.84595Z" fill="#FFD44B"/>
<path fill-rule="evenodd" clip-rule="evenodd" d="M6.17014 101.07C8.71646 99.2075 11.9379 96.9058 12.2958 96.634C21.9963 89.2668 30.034 80.7897 37.1111 70.8446C37.6865 70.0381 37.4961 68.9144 36.6897 68.339C35.8832 67.7636 34.7596 67.954 34.1842 68.7605C27.3246 78.4066 19.5316 86.63 10.1211 93.7751C9.57288 94.1919 2.32799 99.3615 0.941561 100.517C0.370678 100.988 0.1941 101.432 0.162384 101.541C-0.0279098 102.112 0.0853252 102.56 0.239373 102.887C0.416075 103.254 0.855449 103.788 1.70724 104.06C2.59981 104.341 4.5844 104.468 5.08279 104.54C12.5994 105.655 21.0857 106.244 28.8107 108.382C36.1778 110.421 42.8607 113.874 47.1468 120.792C47.6679 121.635 48.7779 121.893 49.6206 121.372C50.4634 120.851 50.7217 119.741 50.2007 118.898C45.4071 111.164 38.0036 107.2 29.7711 104.921C22.0914 102.796 13.6822 102.153 6.17014 101.07Z" fill="#FFD44B"/>
</svg>
