<svg width="117" height="25" viewBox="0 0 117 25" fill="none" xmlns="http://www.w3.org/2000/svg">
<path d="M31.2042 24.5838V13.8558C31.2042 10.9758 32.7882 9.42779 34.8042 9.42779C37.0002 9.42779 38.1522 11.0478 38.1522 13.7478V24.5838H43.1202V13.8558C43.1202 10.9758 44.7402 9.42779 46.7202 9.42779C48.9162 9.42779 50.0682 11.0478 50.0682 13.7478V24.5838H55.0362V12.1638C55.0362 7.55579 52.4082 4.99979 48.5202 4.99979C45.6402 4.99979 43.6962 6.29579 42.1842 8.41979C41.2122 6.22379 39.1962 4.99979 36.5682 4.99979C34.0122 4.99979 32.2122 6.15179 30.8082 8.09579V5.35979H26.2002V24.5838H31.2042Z" fill="white"/>
<path d="M67.8134 24.9438C73.3934 24.9438 77.5694 20.5518 77.5694 14.9718C77.5694 9.35579 73.3934 4.99979 67.8134 4.99979C62.2334 4.99979 58.0574 9.35579 58.0574 14.9718C58.0574 20.5518 62.2334 24.9438 67.8134 24.9438ZM67.8134 20.5158C65.3294 20.5158 63.2054 18.5358 63.2054 14.9718C63.2054 11.4078 65.3294 9.46379 67.8134 9.46379C70.2974 9.46379 72.4214 11.4078 72.4214 14.9718C72.4214 18.5358 70.2974 20.5158 67.8134 20.5158Z" fill="white"/>
<path d="M95.9631 24.5838V20.2278H85.7391L95.6751 9.46379V5.35979H79.5471V9.67979H89.4831L79.5831 20.5518V24.5838H95.9631Z" fill="white"/>
<path d="M107.466 24.9078C112.146 24.9078 115.494 22.4238 116.574 18.0678H111.606C111.03 19.9758 109.554 21.0558 107.358 21.0558C104.802 21.0558 103.29 19.3278 102.966 16.1958H116.61C117.51 9.9318 113.478 4.99979 107.394 4.99979C101.85 4.99979 97.8543 9.17579 97.8543 14.8998C97.8543 20.9118 101.706 24.9078 107.466 24.9078ZM107.286 8.67179C109.662 8.67179 111.174 10.3638 111.318 13.0278H103.038C103.47 10.1838 104.946 8.67179 107.286 8.67179Z" fill="white"/>
<path d="M23.5 0H17.6438L8.9441 15.1984L14.5496 25H20.4058L14.8003 15.1984L23.5 0ZM6.52203 4.6875H1.0011L4.19553 10.2984L0 17.1875H5.52093L9.71647 10.2984L6.52203 4.6875Z" fill="#F54748"/>
</svg>
