<svg width="117" height="25" viewBox="0 0 117 25" fill="none" xmlns="http://www.w3.org/2000/svg">
<path d="M31.2032 24.584V13.856C31.2032 10.976 32.7872 9.428 34.8032 9.428C36.9992 9.428 38.1512 11.048 38.1512 13.748V24.584H43.1192V13.856C43.1192 10.976 44.7392 9.428 46.7192 9.428C48.9152 9.428 50.0672 11.048 50.0672 13.748V24.584H55.0352V12.164C55.0352 7.556 52.4072 5 48.5192 5C45.6392 5 43.6952 6.296 42.1832 8.42C41.2112 6.224 39.1952 5 36.5672 5C34.0112 5 32.2112 6.152 30.8072 8.096V5.36H26.1992V24.584H31.2032Z" fill="white"/>
<path d="M67.8124 24.944C73.3924 24.944 77.5684 20.552 77.5684 14.972C77.5684 9.356 73.3924 5 67.8124 5C62.2324 5 58.0564 9.356 58.0564 14.972C58.0564 20.552 62.2324 24.944 67.8124 24.944ZM67.8124 20.516C65.3284 20.516 63.2044 18.536 63.2044 14.972C63.2044 11.408 65.3284 9.464 67.8124 9.464C70.2964 9.464 72.4204 11.408 72.4204 14.972C72.4204 18.536 70.2964 20.516 67.8124 20.516Z" fill="white"/>
<path d="M95.9622 24.584V20.228H85.7382L95.6742 9.464V5.36H79.5462V9.68H89.4822L79.5822 20.552V24.584H95.9622Z" fill="white"/>
<path d="M107.465 24.908C112.145 24.908 115.493 22.424 116.573 18.068H111.605C111.029 19.976 109.553 21.056 107.357 21.056C104.801 21.056 103.289 19.328 102.965 16.196H116.609C117.509 9.932 113.477 5 107.393 5C101.849 5 97.8533 9.176 97.8533 14.9C97.8533 20.912 101.705 24.908 107.465 24.908ZM107.285 8.672C109.661 8.672 111.173 10.364 111.317 13.028H103.037C103.469 10.184 104.945 8.672 107.285 8.672Z" fill="white"/>
<path d="M23.5 0H17.6438L8.9441 15.1984L14.5496 25H20.4058L14.8003 15.1984L23.5 0ZM6.52203 4.6875H1.0011L4.19553 10.2984L0 17.1875H5.52093L9.71647 10.2984L6.52203 4.6875Z" fill="white"/>
</svg>
