<svg width="117" height="25" viewBox="0 0 117 25" fill="none" xmlns="http://www.w3.org/2000/svg">
<path d="M31.2042 24.584V13.856C31.2042 10.976 32.7882 9.428 34.8042 9.428C37.0002 9.428 38.1522 11.048 38.1522 13.748V24.584H43.1202V13.856C43.1202 10.976 44.7402 9.428 46.7202 9.428C48.9162 9.428 50.0682 11.048 50.0682 13.748V24.584H55.0362V12.164C55.0362 7.556 52.4082 5 48.5202 5C45.6402 5 43.6962 6.296 42.1842 8.42C41.2122 6.224 39.1962 5 36.5682 5C34.0122 5 32.2122 6.152 30.8082 8.096V5.36H26.2002V24.584H31.2042Z" fill="#080F1E"/>
<path d="M67.8134 24.944C73.3934 24.944 77.5694 20.552 77.5694 14.972C77.5694 9.356 73.3934 5 67.8134 5C62.2334 5 58.0574 9.356 58.0574 14.972C58.0574 20.552 62.2334 24.944 67.8134 24.944ZM67.8134 20.516C65.3294 20.516 63.2054 18.536 63.2054 14.972C63.2054 11.408 65.3294 9.464 67.8134 9.464C70.2974 9.464 72.4214 11.408 72.4214 14.972C72.4214 18.536 70.2974 20.516 67.8134 20.516Z" fill="#080F1E"/>
<path d="M95.9631 24.584V20.228H85.7391L95.6751 9.464V5.36H79.5471V9.68H89.4831L79.5831 20.552V24.584H95.9631Z" fill="#080F1E"/>
<path d="M107.466 24.908C112.146 24.908 115.494 22.424 116.574 18.068H111.606C111.03 19.976 109.554 21.056 107.358 21.056C104.802 21.056 103.29 19.328 102.966 16.196H116.61C117.51 9.932 113.478 5 107.394 5C101.85 5 97.8543 9.176 97.8543 14.9C97.8543 20.912 101.706 24.908 107.466 24.908ZM107.286 8.672C109.662 8.672 111.174 10.364 111.318 13.028H103.038C103.47 10.184 104.946 8.672 107.286 8.672Z" fill="#080F1E"/>
<path d="M23.5 0H17.6438L8.9441 15.1984L14.5496 25H20.4058L14.8003 15.1984L23.5 0ZM6.52203 4.6875H1.0011L4.19553 10.2984L0 17.1875H5.52093L9.71647 10.2984L6.52203 4.6875Z" fill="#1A1AFF"/>
</svg>
